<svg xmlns="http://www.w3.org/2000/svg" viewBox="0 0 243 72" width="243" height="72"><path d="M31.81,33.7v8.7a6,6,0,0,0,.5,2.8,2.26,2.26,0,0,0,1.9.8,3.6,3.6,0,0,0,3.1-1.6,7.91,7.91,0,0,0,1.1-4.4A7.33,7.33,0,0,0,37,35.3a4.79,4.79,0,0,0-3.9-1.7h-1.3Zm.7-13.5h-.7V31.6h.7a4.43,4.43,0,0,0,3.4-1.6,6.83,6.83,0,0,0,1.3-4.5A5.67,5.67,0,0,0,36,21.6,4.22,4.22,0,0,0,32.51,20.2ZM20,48.2V46.1a3.63,3.63,0,0,0,2.5-.6,2.94,2.94,0,0,0,.6-2.1V23a6.53,6.53,0,0,0-.2-1.7,1.15,1.15,0,0,0-.7-.8,7.44,7.44,0,0,0-2.2-.3V18.1l8.2.2,3.3-.1,5.4-.1c6.2,0,9.2,2.3,9.2,6.9a7,7,0,0,1-.9,3.5,6,6,0,0,1-2.5,2.5,12.72,12.72,0,0,1-4.8,1.2v.6c3.6.2,6.1.9,7.6,2.1a6,6,0,0,1,2.3,5,7,7,0,0,1-2.8,6c-1.9,1.4-4.5,2.1-8,2.1l-5.3-.1h-4.3Z" fill="#fff" fill-rule="evenodd"/><path d="M48.91,21.2v-2l2.9.1,5.9.1c2.5,0,5.2-.1,7.9-.2v2a4.65,4.65,0,0,0-2.8.6,2.22,2.22,0,0,0-.7,1.9V40.9l.1,3.1.1,2.7c0,3.6-1,6.1-2.9,7.3a12.54,12.54,0,0,1-4.7,1.4,55.53,55.53,0,0,1-7.4.5h-.5v-2a8.16,8.16,0,0,0,3.4-.8,3.59,3.59,0,0,0,2-2.7,30,30,0,0,0,.4-6.2v-21a1.58,1.58,0,0,0-.7-1.5,7.89,7.89,0,0,0-3-.5" fill="#fff" fill-rule="evenodd"/><path d="M69.31,38v.2a7.22,7.22,0,0,0,1.8,5.1,6.51,6.51,0,0,0,4.8,1.8,5.36,5.36,0,0,0,3.3-.9,2.69,2.69,0,0,0,1.2-2.3,3.3,3.3,0,0,0-.5-1.7,3.76,3.76,0,0,0-1.4-1.4c-.6-.4-2.3-1.4-5-3a29.5,29.5,0,0,1-4.2-2.8,16.18,16.18,0,0,1-1.8-1.9,7.66,7.66,0,0,1-1.3-4.5,7.31,7.31,0,0,1,3.1-6.4c2.1-1.5,5-2.2,8.7-2.2a39.27,39.27,0,0,1,9.1,1.1l-.9,8.2H84a8.71,8.71,0,0,0-1.8-5.4,5.53,5.53,0,0,0-4.5-1.9,5,5,0,0,0-2.9.8,2.8,2.8,0,0,0-1.1,2.2,3.26,3.26,0,0,0,1,2.4A17.67,17.67,0,0,0,79,28.2a27.08,27.08,0,0,1,7,4.9,7.56,7.56,0,0,1,1.8,5.1,7.13,7.13,0,0,1-3.4,6.4c-2.3,1.5-5.3,2.2-9.1,2.2a29.46,29.46,0,0,1-8.9-1.3l.6-7.7h2.3Z" fill="#fff" fill-rule="evenodd"/><path d="M99.21,21.3s-.6-.5-1.8-1.4-2.9-2.2-5.1-3.6a72.37,72.37,0,0,0-8.6-4.7,71.61,71.61,0,0,0-11.9-4.3,81.24,81.24,0,0,0-14.6-2.6,64.31,64.31,0,0,0-16.4.3,58.24,58.24,0,0,0-16.6,4.8,18.65,18.65,0,0,0-2,1,11.59,11.59,0,0,0-1.9,1.1l-.9.4-1,.6c-.7.4-1.2.8-1.8,1.2a27.75,27.75,0,0,0-5.9,6,21.16,21.16,0,0,0-3.4,7.5,18.56,18.56,0,0,0-.5,4,13.35,13.35,0,0,0,0,2c.1.7.1,1.3.2,2a27.54,27.54,0,0,0,.9,3.9,14.43,14.43,0,0,0,.7,1.9,3.64,3.64,0,0,0,.4.9l.4.9a36.46,36.46,0,0,0,4.3,6.8A16.83,16.83,0,0,0,15,51.5l2.8,2.8.4.3.3.3-.1-.1.8.7c.5.5,1.1.9,1.6,1.4a4.29,4.29,0,0,0,.8.6l.7.5c.5.3.9.7,1.5,1.1s1.1.7,1.6,1a50.61,50.61,0,0,0,13,5.6,49.69,49.69,0,0,0,12,1.8,41.35,41.35,0,0,0,5.1-.1,39,39,0,0,0,4.3-.6,11.27,11.27,0,0,0,1.9-.4c.6-.1,1.1-.3,1.6-.4s1-.3,1.4-.4.8-.3,1.1-.4c1.4-.5,2.1-.8,2.1-.8l.4.6s-.7.5-1.9,1.3a9.73,9.73,0,0,1-1.1.7c-.4.2-.9.5-1.3.7s-1,.5-1.6.8-1.2.5-1.9.8c-.3.1-.7.3-1,.4a7.24,7.24,0,0,0-1.1.4c-.8.2-1.6.5-2.4.7-1.7.3-3.5.8-5.5,1A47.71,47.71,0,0,1,37,71.5a51.09,51.09,0,0,1-15.3-5.1,19.94,19.94,0,0,1-1.9-1.1,20.56,20.56,0,0,1-1.9-1.3l-1-.7a3.08,3.08,0,0,1-.9-.7c-.5-.4-1.1-.9-1.7-1.3l-.8-.7-.2-.2h-.1l-.7-.7c-.6-.5-1.1-1.1-1.7-1.6l-.8-.8-.8-.9-1.5-1.8a36.34,36.34,0,0,1-5.1-8.5,33.24,33.24,0,0,1-2.5-10A25,25,0,0,1,0,33.5a10.83,10.83,0,0,1,.2-2.6,29.66,29.66,0,0,1,1-5.2,29.81,29.81,0,0,1,2-4.9A33.07,33.07,0,0,1,6,16.4a31.2,31.2,0,0,1,7.5-7c.7-.5,1.5-1,2.1-1.4l1-.6,1.1-.6a15.06,15.06,0,0,1,2.2-1.1c.7-.3,1.5-.7,2.2-1A63.5,63.5,0,0,1,40.31.3c3-.3,6-.3,8.9-.3a76.11,76.11,0,0,1,8.4.7,78.06,78.06,0,0,1,15,3.6,69.88,69.88,0,0,1,11.9,5.2A81,81,0,0,1,93,14.8c2.2,1.7,3.9,3.1,5,4.1s1.7,1.5,1.7,1.5l-.5.9" fill="#f1ae44" fill-rule="evenodd"/><path d="M110.81,39.5a3.08,3.08,0,0,0-3-3,2.94,2.94,0,0,0,2.6-3c0-2.9-2.6-3.4-4.3-3.4h-4.6V43.3h4.6C107.81,43.3,110.81,42.8,110.81,39.5Zm-5.6-4.1h-1.1V32.1h1c1.2,0,2.6.1,2.6,1.7C107.81,35.1,106.41,35.4,105.21,35.4Zm.2,5.8h-1.3V37.4h1.3c1.3,0,2.7.3,2.7,2C108.11,40.9,106.61,41.2,105.41,41.2Zm10.8,2.3a4,4,0,0,0,3.2-1.6v1.4h2.4V33.5h-2.5v4.8c0,1.3-.4,3.2-2.2,3.2-1.5,0-1.6-1.4-1.7-2.5V33.5h-2.5v6.2C112.91,41.9,113.91,43.5,116.21,43.5Zm10.9-.2V39.7c0-1.4,0-4,2.1-4a2.75,2.75,0,0,1,1.1.2V33.3a2.18,2.18,0,0,0-.8-.1,3,3,0,0,0-2.7,2.5V33.5h-2.3v9.8Zm9.3.2a7.18,7.18,0,0,0,3.4-.8V40.6a6.76,6.76,0,0,1-3.2,1,2.56,2.56,0,0,1-2.79-2.29,1.48,1.48,0,0,1,0-.21h6.8c0-3.4-1-5.9-4.7-5.9-3,0-4.5,2.3-4.5,5.2-.1,3.3,1.7,5.1,5,5.1Zm1.6-6.1h-4.3a2.2,2.2,0,0,1,2.1-2.3h.2C137.41,35.1,137.91,36.2,138,37.4Zm7.2,6.1a3.41,3.41,0,0,0,3-1.7,8.41,8.41,0,0,0,.1,1.5h2.2a16.2,16.2,0,0,1-.1-2.2V37.4c0-2.9-1.2-4.1-4.2-4.1a9.88,9.88,0,0,0-3.4.7l.1,2.2a5.45,5.45,0,0,1,3-1.1c1.5,0,2.2.5,2.2,2.1h-1.3a7.48,7.48,0,0,0-3.3.6,2.85,2.85,0,0,0-1.7,2.8C141.81,42.5,143.51,43.5,145.21,43.5Zm.7-1.8c-.9,0-1.6-.4-1.6-1.2,0-1.5,1.7-1.7,2.8-1.7h1.1a3.15,3.15,0,0,1-.5,2,2.43,2.43,0,0,1-1.8.9Zm10.4,1.8a4,4,0,0,0,3.2-1.6v1.4h2.4V33.5h-2.5v4.8c0,1.3-.4,3.2-2.2,3.2-1.5,0-1.6-1.4-1.7-2.5V33.5H153v6.2c0,2.2,1,3.8,3.3,3.8Zm18.1,0a4.83,4.83,0,0,0,5.1-4.54,5.23,5.23,0,0,0,0-.56,5.1,5.1,0,0,0-10.2,0h0a4.83,4.83,0,0,0,4.54,5.1Zm0-1.9c-1.9,0-2.5-1.8-2.5-3.4s.8-2.9,2.5-2.9,2.5,1.4,2.5,2.9-.6,3.4-2.5,3.4ZM185,43.3V35.4h2.2V33.5H185V32.3c0-.8.3-1.5,1.1-1.5a2.12,2.12,0,0,1,1.1.3l.2-2.1a10.13,10.13,0,0,0-1.9-.2,3,3,0,0,0-3.11,2.87,3.09,3.09,0,0,0,0,.43v1.4h-1.9v1.9h1.9v7.9Zm-82.6,19.2A3.34,3.34,0,0,0,106,59.43c0-.11,0-.22,0-.33V49h-2.7v8.8c0,.9,0,2.3-1.7,2.3a5.18,5.18,0,0,1-1.3-.2v2.4A7.8,7.8,0,0,0,102.41,62.5Zm9.6,0a4,4,0,0,0,3.2-1.6v1.4h2.4V52.5h-2.5v4.8c0,1.3-.4,3.2-2.2,3.2-1.5,0-1.6-1.4-1.7-2.5V52.5h-2.5v6.2C108.71,60.9,109.71,62.5,112,62.5Zm10.6,0c2.1,0,4.1-.9,4.1-3.2,0-3.5-4.4-2.5-4.4-4.1,0-.8.8-1.1,1.5-1.1a8.54,8.54,0,0,1,2.3.4l.2-1.9a10.58,10.58,0,0,0-2.8-.4c-2,0-3.8.9-3.8,3,0,3.5,4.4,2.2,4.4,4.1,0,1-1,1.2-1.7,1.2a5.42,5.42,0,0,1-2.5-.6l-.2,2.1A7.77,7.77,0,0,0,122.61,62.5Zm10,0a10.13,10.13,0,0,0,1.9-.2l-.1-2a2.11,2.11,0,0,1-1.2.3c-1,0-1.2-.8-1.2-1.6V54.4h2.3V52.5H132V49.7l-2.5.8v2h-1.9v1.9h1.9v5a2.84,2.84,0,0,0,2.55,3.1A2.53,2.53,0,0,0,132.61,62.5Zm6.1-11.8V48.3h-2.5v2.4Zm0,11.6V52.5h-2.5v9.8Zm6.9.2a8.83,8.83,0,0,0,2.5-.3l-.1-2.1a4.8,4.8,0,0,1-2,.5c-1.8,0-2.6-1.4-2.6-3.2s1-3.1,2.6-3.1a3.58,3.58,0,0,1,1.7.4l.2-2a8.78,8.78,0,0,0-2.5-.3c-3.1,0-4.7,2.2-4.7,5.1s1.7,5,4.9,5Zm8.7,0a7.18,7.18,0,0,0,3.4-.8V59.6a6.76,6.76,0,0,1-3.2,1,2.56,2.56,0,0,1-2.79-2.29,1.48,1.48,0,0,1,0-.21h6.8c0-3.4-1-5.9-4.7-5.9-3,0-4.5,2.3-4.5,5.2C149.21,60.7,151.11,62.5,154.31,62.5Zm1.7-6.1h-4.3a2.2,2.2,0,0,1,2.1-2.3h.2C155.51,54.1,155.91,55.2,156,56.4Zm13.1,6.1c2.7,0,5-1.1,5-4,0-4.4-5.8-3.5-5.8-5.8a1.85,1.85,0,0,1,1.89-1.82l.21,0a6.3,6.3,0,0,1,2.7.6l.2-2.2a10.54,10.54,0,0,0-3.2-.5c-2.3,0-4.6,1.1-4.6,4,0,4.4,5.8,3.3,5.8,5.9,0,1.2-1.3,1.7-2.4,1.7a6.43,6.43,0,0,1-3-.8l-.2,2.4A11.86,11.86,0,0,0,169.11,62.5Zm11.1,0a10.13,10.13,0,0,0,1.9-.2l-.1-2a2.11,2.11,0,0,1-1.2.3c-1,0-1.2-.8-1.2-1.6V54.4h2.3V52.5h-2.3V49.7l-2.5.8v2h-1.9v1.9h1.9v5a2.84,2.84,0,0,0,2.55,3.1,2.53,2.53,0,0,0,.55,0Zm6.2,0a3.41,3.41,0,0,0,3-1.7,8.41,8.41,0,0,0,.1,1.5h2.2a16.2,16.2,0,0,1-.1-2.2V56.4c0-2.9-1.2-4.1-4.2-4.1a9.88,9.88,0,0,0-3.4.7l.1,2.2a5.45,5.45,0,0,1,3-1.1c1.5,0,2.2.5,2.2,2.1h-1.4a7.48,7.48,0,0,0-3.3.6,2.85,2.85,0,0,0-1.7,2.8,3.24,3.24,0,0,0,3.5,2.9Zm.6-1.8c-.9,0-1.6-.4-1.6-1.2,0-1.5,1.7-1.7,2.8-1.7h1.1a3.15,3.15,0,0,1-.5,2,2.27,2.27,0,0,1-1.8.9Zm11.1,1.8a10.13,10.13,0,0,0,1.9-.2l-.1-2a2.11,2.11,0,0,1-1.2.3c-1,0-1.2-.8-1.2-1.6V54.4h2.3V52.5h-2.3V49.7l-2.5.8v2h-1.9v1.9H195v5a2.84,2.84,0,0,0,2.55,3.1,2.53,2.53,0,0,0,.55,0Zm6.1-11.8V48.3h-2.5v2.4Zm0,11.6V52.5h-2.5v9.8Zm5,.2c2.1,0,4.1-.9,4.1-3.2,0-3.5-4.4-2.5-4.4-4.1,0-.8.8-1.1,1.5-1.1a8.54,8.54,0,0,1,2.3.4l.2-1.9a10.58,10.58,0,0,0-2.8-.4c-2,0-3.8.9-3.8,3,0,3.5,4.4,2.2,4.4,4.1,0,1-1,1.2-1.7,1.2a5.42,5.42,0,0,1-2.5-.6l-.2,2.1a7.36,7.36,0,0,0,2.9.5Zm10,0a10.13,10.13,0,0,0,1.9-.2l-.1-2a2.11,2.11,0,0,1-1.2.3c-1,0-1.2-.8-1.2-1.6V54.4h2.3V52.5h-2.3V49.7l-2.5.8v2h-1.9v1.9h1.9v5a2.84,2.84,0,0,0,2.55,3.1,2.53,2.53,0,0,0,.55,0Zm6.1-11.8V48.3h-2.5v2.4Zm0,11.6V52.5h-2.5v9.8Zm6.9.2a8.83,8.83,0,0,0,2.5-.3l-.1-2.1a4.8,4.8,0,0,1-2,.5c-1.8,0-2.6-1.4-2.6-3.2s1-3.1,2.6-3.1a3.58,3.58,0,0,1,1.7.4l.2-2a8.78,8.78,0,0,0-2.5-.3c-3.1,0-4.7,2.2-4.7,5.1a4.64,4.64,0,0,0,4.26,5,4.58,4.58,0,0,0,.64,0Zm6.6,0c2.1,0,4.1-.9,4.1-3.2,0-3.5-4.4-2.5-4.4-4.1,0-.8.8-1.1,1.5-1.1a8.54,8.54,0,0,1,2.3.4l.2-1.9a10.58,10.58,0,0,0-2.8-.4c-2,0-3.8.9-3.8,3,0,3.5,4.4,2.2,4.4,4.1,0,1-1,1.2-1.7,1.2a5.42,5.42,0,0,1-2.5-.6l-.2,2.1a7,7,0,0,0,2.9.5Z" fill="#fff"/></svg>